<svg width="24" height="24" viewBox="0 0 24 24" fill="none" xmlns="http://www.w3.org/2000/svg">
<path d="M23.9997 11.9998C23.9997 5.37198 18.6277 0 11.9998 0C5.37198 0 0 5.37198 0 11.9998C0 17.9899 4.38569 22.9542 10.1259 23.855V15.4716H7.08154V11.9998H10.1259V9.35658C10.1259 6.35169 11.9143 4.68815 14.6562 4.68815C15.9713 4.68815 17.3455 4.92486 17.3455 4.92486V7.87715H15.8332C14.3406 7.87715 13.8803 8.80426 13.8803 9.75109V11.9998H17.2074L16.6748 15.4716H13.8803V23.855C19.614 22.9542 23.9997 17.9899 23.9997 11.9998Z" fill="#1877F2"/>
<path d="M16.6695 15.4719L17.2021 12.0002H13.875V9.75142C13.875 8.80458 14.3418 7.87747 15.8278 7.87747H17.3401V4.92518C17.3401 4.92518 15.9659 4.68848 14.6509 4.68848C11.909 4.68848 10.1205 6.35201 10.1205 9.3569V12.0002H7.07617V15.4719H10.1205V23.8553C10.732 23.954 11.3567 24 11.9945 24C12.6323 24 13.2569 23.9474 13.8684 23.8553V15.4719H16.6695Z" fill="white"/>
</svg>
