<svg width="23" height="23" viewBox="0 0 23 23" fill="none" xmlns="http://www.w3.org/2000/svg">
<path d="M22.1666 11.5554C22.1666 10.6261 22.0912 9.9479 21.928 9.24463H11.3159V13.4392H17.545C17.4194 14.4816 16.7413 16.0514 15.2342 17.1063L15.2131 17.2467L18.5684 19.846L18.8009 19.8692C20.9358 17.8975 22.1666 14.9965 22.1666 11.5554Z" fill="#4285F4"/>
<path d="M11.3081 22.604C14.3598 22.604 16.9218 21.5992 18.7931 19.8662L15.2264 17.1032C14.272 17.7688 12.9909 18.2335 11.3081 18.2335C8.31918 18.2335 5.78235 16.2618 4.87804 13.5366L4.74549 13.5479L1.25656 16.248L1.21094 16.3748C3.0696 20.067 6.88744 22.604 11.3081 22.604Z" fill="#34A853"/>
<path d="M4.87271 13.537C4.6341 12.8337 4.49601 12.0802 4.49601 11.3016C4.49601 10.5229 4.6341 9.7694 4.86015 9.06612L4.85383 8.91634L1.32118 6.17285L1.2056 6.22783C0.439558 7.76 0 9.48057 0 11.3016C0 13.1226 0.439558 14.8431 1.2056 16.3752L4.87271 13.537Z" fill="#FBBC05"/>
<path d="M11.3081 4.37038C13.4305 4.37038 14.8622 5.28716 15.6785 6.05329L18.8684 2.93872C16.9093 1.11772 14.3598 0 11.3081 0C6.88744 0 3.0696 2.53683 1.21094 6.22904L4.86549 9.06734C5.78235 6.34211 8.31918 4.37038 11.3081 4.37038Z" fill="#EB4335"/>
</svg>
