<svg width="26" height="21" viewBox="0 0 26 21" fill="none" xmlns="http://www.w3.org/2000/svg">
<path d="M25.05 2.41334C24.1262 2.82153 23.1379 3.10081 22.0996 3.22256C23.1594 2.58521 23.9758 1.57547 24.3625 0.379545C23.3671 0.966766 22.2714 1.39644 21.097 1.6256C20.1589 0.623027 18.8197 0 17.3445 0C14.5015 0 12.2027 2.30592 12.2027 5.14177C12.2027 5.5428 12.2457 5.93666 12.3388 6.31621C8.06355 6.10137 4.27526 4.05326 1.74018 0.945283C1.29618 1.70437 1.04554 2.58521 1.04554 3.53049C1.04554 5.31364 1.95502 6.88911 3.32997 7.81291C2.48495 7.78426 1.69721 7.5551 1.00257 7.1684C1.00257 7.18988 1.00257 7.21136 1.00257 7.23285C1.00257 9.72496 2.77856 11.8017 5.12744 12.2744C4.69777 12.3889 4.23945 12.4534 3.77397 12.4534C3.44455 12.4534 3.1223 12.4176 2.8072 12.3603C3.45888 14.4012 5.36377 15.8908 7.61239 15.9337C5.85073 17.3159 3.63791 18.1322 1.22457 18.1322C0.80922 18.1322 0.401029 18.1108 0 18.0606C2.27727 19.5215 4.97706 20.3737 7.88452 20.3737C17.3445 20.3737 22.5149 12.5393 22.5149 5.74331C22.5149 5.52131 22.5078 5.29931 22.5006 5.07731C23.4889 4.34687 24.3625 3.44455 25.05 2.41334Z" fill="#55ACEE"/>
</svg>
