<svg width="41" height="41" viewBox="0 0 41 41" fill="none" xmlns="http://www.w3.org/2000/svg">
<path fill-rule="evenodd" clip-rule="evenodd" d="M20.6521 37.2867C29.9592 37.2867 37.504 29.7419 37.504 20.4349C37.504 11.1278 29.9592 3.58301 20.6521 3.58301C11.3451 3.58301 3.80029 11.1278 3.80029 20.4349C3.80029 29.7419 11.3451 37.2867 20.6521 37.2867ZM21.916 15.3793C21.916 14.6813 21.3502 14.1154 20.6521 14.1154C19.9541 14.1154 19.3883 14.6813 19.3883 15.3793V19.171H15.5966C14.8986 19.171 14.3327 19.7368 14.3327 20.4349C14.3327 21.1329 14.8986 21.6987 15.5966 21.6987H19.3883V25.4904C19.3883 26.1884 19.9541 26.7543 20.6521 26.7543C21.3502 26.7543 21.916 26.1884 21.916 25.4904V21.6987H25.7077C26.4057 21.6987 26.9716 21.1329 26.9716 20.4349C26.9716 19.7368 26.4057 19.171 25.7077 19.171H21.916V15.3793Z" fill="#8E00FE"/>
</svg>
