<svg width="50" height="50" viewBox="0 0 50 50" fill="none" xmlns="http://www.w3.org/2000/svg">
<circle cx="25" cy="25" r="25" fill="#ECECEC"/>
<path fill-rule="evenodd" clip-rule="evenodd" d="M37.9727 29.9012C40.7972 24.4911 38.1083 18.0737 35.0175 14.9828C29.4851 9.45039 20.5152 9.45039 14.9828 14.9828C9.45039 20.5152 9.45039 29.4851 14.9828 35.0175C18.2051 38.2398 24.5128 40.8192 29.9032 37.976C30.4571 37.6838 30.7343 37.5376 30.8697 37.4831C31.4417 37.2531 31.7426 37.218 32.3521 37.3105C32.4964 37.3325 32.6853 37.3814 33.0629 37.4793C34.1958 37.7729 34.7625 37.9198 35.1754 37.9049C36.6602 37.8514 37.8514 36.6602 37.9049 35.1754C37.9198 34.7625 37.773 34.196 37.4793 33.0631C37.3815 32.6855 37.3325 32.4966 37.3106 32.3531C37.2178 31.7436 37.2512 31.4514 37.4791 30.8786C37.5328 30.7437 37.6794 30.4629 37.9727 29.9012ZM20.5489 24.7989C20.5489 25.5813 19.9146 26.2155 19.1322 26.2155C18.3498 26.2155 17.7155 25.5813 17.7155 24.7989C17.7155 24.0165 18.3498 23.3822 19.1322 23.3822C19.9146 23.3822 20.5489 24.0165 20.5489 24.7989ZM26.2155 24.7989C26.2155 25.5813 25.5813 26.2155 24.7989 26.2155C24.0165 26.2155 23.3822 25.5813 23.3822 24.7989C23.3822 24.0165 24.0165 23.3822 24.7989 23.3822C25.5813 23.3822 26.2155 24.0165 26.2155 24.7989ZM30.4655 26.2155C31.2479 26.2155 31.8822 25.5813 31.8822 24.7989C31.8822 24.0165 31.2479 23.3822 30.4655 23.3822C29.6831 23.3822 29.0489 24.0165 29.0489 24.7989C29.0489 25.5813 29.6831 26.2155 30.4655 26.2155Z" fill="#8E00FE" fill-opacity="0.53"/>
</svg>
