<svg width="50" height="50" viewBox="0 0 50 50" fill="none" xmlns="http://www.w3.org/2000/svg">
<circle cx="25" cy="25" r="25" fill="#ECECEC"/>
<path d="M37.2795 15.8615C34.8786 13.3572 31.4274 12.4181 28.1262 13.3572L24.0747 23.2178L28.2763 24.3135C29.0265 24.47 29.6267 25.4091 29.3266 26.1917C29.3266 26.3482 29.3266 26.3482 29.1766 26.5047L26.1755 32.7654C26.0254 33.3915 25.5753 33.7045 24.9751 33.7045C24.675 33.7045 24.5249 33.7045 24.3749 33.548C23.6246 33.235 23.3245 32.2959 23.6246 31.5133L25.7253 26.9743L21.6739 25.8787C20.7736 25.5656 20.3234 24.783 20.4735 24.0004C20.4735 23.8439 20.4735 23.8439 20.4735 23.8439L24.2248 14.7659C20.0233 11.6355 14.1712 13.0442 11.4702 17.5832C9.06936 21.4961 9.66957 26.5047 12.8207 29.7916L24.0747 41.5304C24.675 42.1565 25.5753 42.1565 26.1755 41.5304L37.4295 29.7916C40.8808 25.8787 40.8808 19.7745 37.2795 15.8615Z" fill="#BA6FF6"/>
</svg>
