<svg width="40" height="40" viewBox="0 0 40 40" fill="none" xmlns="http://www.w3.org/2000/svg">
<path d="M15 15C15 12.1667 17.1667 10 20 10C22.8333 10 25 12.1667 25 15C25 17.8333 22.8333 20 20 20C17.1667 20 15 17.8333 15 15ZM20 23.3333C12.3333 23.3333 10 28.8333 10 28.8333V31.6667H30V28.8333C30 28.8333 27.6667 23.3333 20 23.3333Z" fill="black"/>
<path d="M30.8385 18.3333C33.1397 18.3333 35.0052 16.4679 35.0052 14.1667C35.0052 11.8655 33.1397 10 30.8385 10C28.5374 10 26.6719 11.8655 26.6719 14.1667C26.6719 16.4679 28.5374 18.3333 30.8385 18.3333Z" fill="black"/>
<path d="M30.8385 21.666C28.8385 21.666 27.3385 22.166 26.1719 22.9993C30.0052 24.8327 31.5052 27.9993 31.5052 28.3327V28.4993H38.3385V26.3327C38.3385 26.166 36.5052 21.666 30.8385 21.666Z" fill="black"/>
<path d="M30.8385 18.3333C33.1397 18.3333 35.0052 16.4679 35.0052 14.1667C35.0052 11.8655 33.1397 10 30.8385 10C28.5374 10 26.6719 11.8655 26.6719 14.1667C26.6719 16.4679 28.5374 18.3333 30.8385 18.3333Z" fill="black"/>
<path d="M30.8385 21.666C28.8385 21.666 27.3385 22.166 26.1719 22.9993C30.0052 24.8327 31.5052 27.9993 31.5052 28.3327V28.4993H38.3385V26.3327C38.3385 26.166 36.5052 21.666 30.8385 21.666Z" fill="black"/>
<path d="M9.16667 18.3333C11.4679 18.3333 13.3333 16.4679 13.3333 14.1667C13.3333 11.8655 11.4679 10 9.16667 10C6.86548 10 5 11.8655 5 14.1667C5 16.4679 6.86548 18.3333 9.16667 18.3333Z" fill="black"/>
<path d="M9.17188 21.666C11.1719 21.666 12.6719 22.166 13.8385 22.9993C10.0052 24.8327 8.50521 27.9993 8.50521 28.3327V28.4993H1.67188V26.3327C1.67188 26.166 3.50521 21.666 9.17188 21.666Z" fill="black"/>
</svg>
