<svg width="40" height="40" viewBox="0 0 40 40" fill="none" xmlns="http://www.w3.org/2000/svg">
<path d="M10.4894 8.27561C14.9341 5.04635 17.1565 3.43172 19.6945 3.33861C19.8981 3.33114 20.1019 3.33114 20.3055 3.33861C22.8435 3.43172 25.0659 5.04635 29.5106 8.27561C33.9553 11.5049 36.1776 13.1195 37.0505 15.5045C37.1205 15.6959 37.1835 15.8897 37.2393 16.0856C37.935 18.5282 37.0861 21.1407 35.3884 26.3658L32.5201 35.1937C32.0643 36.5964 30.7571 37.5461 29.2823 37.5461C27.4021 37.5461 25.8779 36.0219 25.8779 34.1417V29.5602C25.8779 27.7959 24.4477 26.3658 22.6835 26.3658H17.3165C15.5523 26.3658 14.1222 27.7959 14.1222 29.5602V34.1417C14.1222 36.0219 12.598 37.5461 10.7178 37.5461C9.24287 37.5461 7.93573 36.5964 7.47997 35.1937L4.61159 26.3658C2.91387 21.1407 2.06501 18.5282 2.76075 16.0856C2.81656 15.8897 2.87954 15.6959 2.94956 15.5045C3.8224 13.1195 6.04475 11.5049 10.4894 8.27561Z" fill="#8E00FE"/>
</svg>
