<svg width="66" height="66" viewBox="0 0 66 66" fill="none" xmlns="http://www.w3.org/2000/svg">
<circle opacity="0.16" cx="33.2135" cy="32.6627" r="32.6119" fill="url(#paint0_linear_2259_7465)"/>
<path d="M44.7152 37.3771C44.6651 27.3032 32.3043 18.6815 31.7785 18.3227C31.4613 18.1056 31.0607 18.0806 30.7185 18.2475C30.3763 18.4228 30.1593 18.765 30.1426 19.1406C30.0675 21.344 27.1797 26.1097 26.0613 27.7873C21.7963 33.5295 21.8047 37.2853 21.8047 37.4272C21.8047 43.9623 26.971 46.5914 29.7002 47.0672C30.1927 47.1506 30.6768 46.8752 30.852 46.4161C31.0273 45.9487 30.852 45.4229 30.4347 45.1559C26.6622 42.7939 28.5485 39.1215 28.7989 38.6625C29.4832 37.5441 29.9256 36.5258 30.2177 35.7246C31.1108 36.9014 31.0356 37.9781 31.0356 38.0198C30.9856 38.4789 31.2527 38.9212 31.6783 39.0965C32.1123 39.2717 32.6047 39.1382 32.8885 38.7793C35.0085 36.0835 35.5677 33.0454 35.6595 30.9589C38.8477 34.1555 39.1816 37.8028 39.2066 38.1617C39.1899 43.3364 36.0017 45.3144 35.8681 45.3896C35.4258 45.6483 35.2338 46.1908 35.4174 46.6749C35.576 47.0838 35.9683 47.3342 36.3856 47.3342C36.4607 47.3342 36.5358 47.3259 36.6109 47.3092C45.241 45.3896 44.807 38.2952 44.7152 37.3771Z" fill="#8E00FE"/>
<defs>
<linearGradient id="paint0_linear_2259_7465" x1="33.2135" y1="0.0507812" x2="33.2135" y2="65.2746" gradientUnits="userSpaceOnUse">
<stop stop-color="#8E00FE"/>
<stop offset="1" stop-color="#8E00FE" stop-opacity="0"/>
</linearGradient>
</defs>
</svg>
