<svg width="67" height="66" viewBox="0 0 67 66" fill="none" xmlns="http://www.w3.org/2000/svg">
<g clip-path="url(#clip0_2259_7467)">
<path d="M44.3971 31.9819L27.7898 49.8816C27.6788 50.0043 27.5209 50.0687 27.363 50.0687C27.2576 50.0687 27.1524 50.0395 27.0589 49.9809C26.819 49.8406 26.7197 49.5482 26.8133 49.2851L30.9475 37.7067H25.3222C25.1408 37.7067 24.9771 37.6308 24.866 37.4904C24.7549 37.3501 24.7081 37.1746 24.7489 36.9992L27.9009 22.4619C27.9594 22.1929 28.1933 22 28.4681 22H38.5378C38.7366 22 38.9238 22.0994 39.029 22.269C39.1401 22.4386 39.1518 22.649 39.0641 22.8303L35.2163 30.9995H43.9644C44.1984 30.9995 44.4088 31.1398 44.5025 31.3504C44.596 31.5608 44.555 31.8123 44.3971 31.9819Z" fill="#2F80ED"/>
</g>
<circle opacity="0.16" cx="33.5181" cy="32.6627" r="32.6119" fill="url(#paint0_linear_2259_7467)"/>
<defs>
<linearGradient id="paint0_linear_2259_7467" x1="33.5181" y1="0.0507812" x2="33.5181" y2="65.2746" gradientUnits="userSpaceOnUse">
<stop stop-color="#2F80ED"/>
<stop offset="1" stop-color="#2F80ED" stop-opacity="0"/>
</linearGradient>
<clipPath id="clip0_2259_7467">
<rect width="29.2383" height="29.2383" fill="white" transform="translate(20.0234 21.416)"/>
</clipPath>
</defs>
</svg>
