<svg width="66" height="66" viewBox="0 0 66 66" fill="none" xmlns="http://www.w3.org/2000/svg">
<circle opacity="0.16" cx="32.9478" cy="32.6627" r="32.6119" fill="url(#paint0_linear_2259_7469)"/>
<g clip-path="url(#clip0_2259_7469)">
<path d="M34.0027 20.875C33.4667 20.875 32.9501 20.9651 32.5252 21.2433C32.1003 21.5215 31.8143 22.0255 31.8143 22.6276C31.8143 23.2296 32.1003 23.7354 32.5252 24.0136C32.8321 24.2144 33.1874 24.3138 33.5626 24.3545V26.1438C33.1635 26.166 32.7755 26.2259 32.3945 26.3053L31.9305 24.5827C31.7071 23.9722 30.9365 24.3104 31.0863 24.8091L31.546 26.5292C31.1684 26.6534 30.8056 26.8073 30.4556 26.9847L29.5644 25.4397C29.1855 24.8935 28.528 25.4533 28.8047 25.8789L29.6968 27.4222C29.3661 27.6391 29.0539 27.8805 28.7603 28.1434L27.7896 27.1727C28.0279 26.8778 28.2118 26.5561 28.2869 26.196C28.3907 25.6988 28.2341 25.1383 27.8084 24.7126C27.3827 24.2868 26.8221 24.1337 26.325 24.2375C25.8278 24.3412 25.4009 24.6437 25.0219 25.0227C24.6429 25.4017 24.3404 25.8278 24.2366 26.325C24.1328 26.8221 24.286 27.3835 24.7117 27.8093C25.1374 28.235 25.6988 28.3915 26.196 28.2878C26.5561 28.2126 26.8779 28.0287 27.1727 27.7905L28.1425 28.7603C27.8795 29.0541 27.6383 29.3668 27.4213 29.6977L25.8789 28.8047C25.3066 28.5253 24.9852 29.2922 25.4389 29.5644L26.9838 30.4565C26.8066 30.8062 26.6525 31.1687 26.5284 31.546L24.8091 31.0871C24.2718 30.9373 23.9981 31.7365 24.5827 31.9305L26.3045 32.3936C26.2249 32.7751 26.1652 33.1639 26.143 33.5634H24.3545C24.3138 33.1883 24.2144 32.8321 24.0136 32.5252C23.7354 32.1003 23.2296 31.8151 22.6276 31.8151C22.0255 31.8151 21.5215 32.1003 21.2433 32.5252C20.9651 32.9501 20.875 33.4667 20.875 34.0027C20.875 34.5386 20.9651 35.0552 21.2433 35.4801C21.5215 35.905 22.0255 36.191 22.6276 36.191C23.2296 36.191 23.7354 35.905 24.0136 35.4801C24.2152 35.1721 24.3149 34.8152 24.3554 34.4384H26.143C26.165 34.8388 26.2248 35.2286 26.3045 35.6108L24.5827 36.0714C24.018 36.2223 24.2445 37.0699 24.8091 36.9191L26.5284 36.4593C26.6524 36.8365 26.8067 37.1992 26.9838 37.5488L25.4389 38.4409C24.8952 38.7231 25.3647 39.5308 25.8789 39.198L27.4213 38.3085C27.6383 38.6393 27.8805 38.9513 28.1434 39.245L27.1727 40.2157C26.8779 39.9774 26.5561 39.7936 26.196 39.7184C25.6988 39.6146 25.1374 39.7712 24.7117 40.1969C24.286 40.6226 24.1328 41.1797 24.2366 41.6769C24.3404 42.1741 24.6429 42.6044 25.0219 42.9834C25.4009 43.3624 25.8278 43.6649 26.325 43.7687C26.8221 43.8725 27.3827 43.7193 27.8084 43.2936C28.2341 42.8679 28.3907 42.3065 28.2869 41.8094C28.2118 41.4492 28.0279 41.1275 27.7896 40.8327L28.7603 39.8619C29.0539 40.1249 29.366 40.3661 29.6968 40.5831L28.8047 42.1264C28.5117 42.6328 29.2713 43.0729 29.5644 42.5664L30.4556 41.0215C30.8052 41.1987 31.168 41.3528 31.5451 41.477L31.0863 43.1962C30.8791 43.7898 31.8128 44.0402 31.9305 43.4226L32.3936 41.7008C32.7748 41.7803 33.1634 41.8402 33.5626 41.8623V43.6491C33.1874 43.6898 32.8321 43.7892 32.5252 43.99C32.1003 44.2682 31.8143 44.7748 31.8143 45.3769C31.8143 45.9789 32.1003 46.4821 32.5252 46.7603C32.9501 47.0385 33.4667 47.1252 34.0027 47.1252C34.5386 47.1252 35.0543 47.0385 35.4792 46.7603C35.9042 46.4821 36.191 45.9789 36.191 45.3769C36.191 44.7748 35.9042 44.2682 35.4792 43.99C35.1712 43.7884 34.8152 43.6887 34.4385 43.6482V41.864C34.8392 41.8418 35.2301 41.7841 35.6125 41.7042L36.0714 43.4226C36.2222 43.9874 37.069 43.761 36.9182 43.1962L36.4602 41.4821C36.8377 41.3577 37.2015 41.2034 37.5514 41.0258L38.4409 42.5664C38.7231 43.1101 39.5299 42.6407 39.1972 42.1264L38.3093 40.5857C38.6398 40.3684 38.955 40.1298 39.2484 39.8662L40.2149 40.8335C39.9766 41.1283 39.7927 41.4501 39.7175 41.8102C39.6138 42.3074 39.7704 42.8679 40.1961 43.2936C40.6218 43.7193 41.1798 43.8725 41.6769 43.7687C42.1741 43.6649 42.6044 43.3624 42.9834 42.9834C43.3624 42.6044 43.6641 42.1741 43.7679 41.6769C43.8716 41.1797 43.7193 40.6226 43.2936 40.1969C42.8679 39.7712 42.3065 39.6138 41.8094 39.7175C41.4493 39.7927 41.1274 39.9775 40.8327 40.2157L39.8679 39.251C40.1307 38.9567 40.3688 38.6406 40.5857 38.3093L42.1264 39.198C42.6407 39.5308 43.1093 38.7231 42.5656 38.4409L41.0241 37.5514C41.2013 37.2014 41.3553 36.8376 41.4795 36.4602L43.1962 36.9191C43.7616 37.0712 43.9885 36.2215 43.4226 36.0714L41.7017 35.6117C41.7815 35.2292 41.8394 34.839 41.8615 34.4384H43.6474C43.6878 34.8152 43.7875 35.1721 43.9892 35.4801C44.2673 35.905 44.7748 36.191 45.3769 36.191C45.9789 36.191 46.4822 35.905 46.7603 35.4801C47.0385 35.0552 47.1252 34.5386 47.1252 34.0027C47.1252 33.4667 47.0385 32.9501 46.7603 32.5252C46.4822 32.1003 45.9789 31.8151 45.3769 31.8151C44.7748 31.8151 44.2673 32.1003 43.9892 32.5252C43.7883 32.8321 43.689 33.1883 43.6482 33.5634H41.8632C41.8409 33.1639 41.7838 32.7742 41.7043 32.3928L43.4226 31.9305C44.0015 31.7577 43.755 30.9373 43.1962 31.0871L41.4812 31.5451C41.357 31.1675 41.2033 30.8038 41.0258 30.4539L42.5656 29.5644C43.0468 29.2669 42.6675 28.5339 42.1264 28.8047L40.5857 29.6968C40.3683 29.3659 40.1301 29.0498 39.8662 28.756C40.6753 27.7039 40.8603 27.9428 41.8094 28.2878C42.3065 28.3915 42.8679 28.235 43.2936 27.8093C43.7193 27.3835 43.8716 26.823 43.7679 26.3258C43.6641 25.8287 43.3624 25.4017 42.9834 25.0227C42.6044 24.6437 42.1741 24.3404 41.6769 24.2366C41.5526 24.2107 41.4246 24.2011 41.2958 24.2075C40.9093 24.2268 40.5153 24.3933 40.1961 24.7126C39.7704 25.1383 39.6138 25.6988 39.7175 26.196C39.7927 26.5559 39.9759 26.878 40.214 27.1727L39.2501 28.1374C38.956 27.8748 38.6395 27.6374 38.3085 27.4205L39.1972 25.8789C39.4651 25.3725 38.7577 24.936 38.4409 25.4397L37.5505 26.9812C37.2007 26.8039 36.8375 26.6492 36.4602 26.5249L36.9182 24.8091C37.0676 24.2588 36.2574 24.0026 36.0714 24.5827L35.6108 26.3028C35.2287 26.223 34.8387 26.165 34.4385 26.143V24.3554C34.8152 24.3149 35.1712 24.2152 35.4792 24.0136C35.9042 23.7354 36.191 23.2296 36.191 22.6276C36.191 22.0255 35.9042 21.5215 35.4792 21.2433C35.0543 20.9651 34.5386 20.875 34.0027 20.875ZM34.0027 28.31C34.6047 28.31 35.1113 28.596 35.3895 29.0209C35.6677 29.4459 35.7544 29.9624 35.7544 30.4984C35.7544 31.0343 35.6677 31.5543 35.3895 31.9792C35.1113 32.4041 34.6047 32.6901 34.0027 32.6901C33.4006 32.6901 32.894 32.4041 32.6158 31.9792C32.3376 31.5543 32.2501 31.0343 32.2501 30.4984C32.2501 29.9624 32.3376 29.4459 32.6158 29.0209C32.894 28.596 33.4006 28.31 34.0027 28.31ZM31.5554 33.8155C32.0624 33.844 32.5634 34.1375 32.8645 34.6589C33.1655 35.1803 33.1711 35.7607 32.9422 36.2141C32.7133 36.6675 32.3075 37.0031 31.8433 37.2711C31.3792 37.5391 30.8892 37.7234 30.3821 37.6949C29.8751 37.6665 29.3741 37.3687 29.0731 36.8473C28.772 36.3259 28.7664 35.7463 28.9953 35.2929C29.2242 34.8396 29.6266 34.5065 30.0908 34.2385C30.5549 33.9705 31.0483 33.7871 31.5554 33.8155ZM36.4499 33.8155C36.957 33.7871 37.447 33.9705 37.9111 34.2385C38.3753 34.5065 38.7811 34.8396 39.01 35.2929C39.2389 35.7463 39.2333 36.3259 38.9323 36.8473C38.6312 37.3687 38.1302 37.6665 37.6232 37.6949C37.1161 37.7234 36.6261 37.5391 36.162 37.2711C35.6978 37.0031 35.292 36.6675 35.0631 36.2141C34.8342 35.7607 34.839 35.1803 35.14 34.6589C35.441 34.1375 35.9429 33.844 36.4499 33.8155Z" fill="#2D9CDB"/>
</g>
<defs>
<linearGradient id="paint0_linear_2259_7469" x1="32.9478" y1="0.0507812" x2="32.9478" y2="65.2746" gradientUnits="userSpaceOnUse">
<stop stop-color="#56CCF2"/>
<stop offset="1" stop-color="#56CCF2" stop-opacity="0"/>
</linearGradient>
<clipPath id="clip0_2259_7469">
<rect width="28" height="28" fill="white" transform="translate(20 20)"/>
</clipPath>
</defs>
</svg>
