<svg width="66" height="66" viewBox="0 0 66 66" fill="none" xmlns="http://www.w3.org/2000/svg">
<circle opacity="0.16" cx="32.6822" cy="32.6627" r="32.6119" fill="url(#paint0_linear_2259_7466)"/>
<path d="M32.6824 21.1367C30.1803 21.1367 27.7343 21.8787 25.6538 23.2688C23.5733 24.659 21.9518 26.6348 20.9943 28.9465C20.0367 31.2582 19.7862 33.8019 20.2743 36.256C20.7625 38.7101 21.9674 40.9643 23.7367 42.7336C25.506 44.5029 27.7602 45.7078 30.2143 46.196C32.6684 46.6841 35.2121 46.4336 37.5238 45.476C39.8355 44.5185 41.8114 42.897 43.2015 40.8165C44.5916 38.736 45.3336 36.29 45.3336 33.7879C45.3336 30.4326 44.0007 27.2147 41.6281 24.8422C39.2556 22.4696 36.0377 21.1367 32.6824 21.1367ZM36.7645 28.8919C37.0873 28.8919 37.4028 28.9876 37.6712 29.1669C37.9396 29.3463 38.1488 29.6011 38.2723 29.8993C38.3958 30.1976 38.4281 30.5257 38.3652 30.8423C38.3022 31.1588 38.1468 31.4496 37.9185 31.6779C37.6903 31.9061 37.3995 32.0616 37.0829 32.1245C36.7663 32.1875 36.4382 32.1552 36.14 32.0317C35.8418 31.9081 35.5869 31.699 35.4076 31.4306C35.2282 31.1622 35.1325 30.8467 35.1325 30.5239C35.1325 30.3096 35.1747 30.0973 35.2568 29.8993C35.3388 29.7013 35.459 29.5214 35.6105 29.3699C35.7621 29.2183 35.942 29.0981 36.14 29.0161C36.338 28.9341 36.5502 28.8919 36.7645 28.8919ZM28.6003 28.8919C28.9231 28.8919 29.2386 28.9876 29.507 29.1669C29.7754 29.3463 29.9846 29.6011 30.1081 29.8993C30.2316 30.1976 30.2639 30.5257 30.201 30.8423C30.138 31.1588 29.9826 31.4496 29.7543 31.6779C29.5261 31.9061 29.2353 32.0616 28.9187 32.1245C28.6021 32.1875 28.274 32.1552 27.9758 32.0317C27.6776 31.9081 27.4227 31.699 27.2434 31.4306C27.064 31.1622 26.9683 30.8467 26.9683 30.5239C26.9683 30.3096 27.0105 30.0973 27.0925 29.8993C27.1746 29.7013 27.2948 29.5214 27.4463 29.3699C27.5979 29.2183 27.7778 29.0981 27.9758 29.0161C28.1738 28.9341 28.386 28.8919 28.6003 28.8919ZM40.3785 36.3392C40.155 38.1119 39.293 39.7423 37.954 40.9252C36.615 42.1082 34.8908 42.7626 33.1041 42.766H32.2607C30.474 42.7626 28.7498 42.1082 27.4108 40.9252C26.0718 39.7423 25.2099 38.1119 24.9863 36.3392C24.972 36.2243 24.9822 36.1077 25.0163 35.997C25.0504 35.8863 25.1076 35.7842 25.1842 35.6973C25.2607 35.6104 25.3548 35.5407 25.4603 35.4929C25.5658 35.4451 25.6802 35.4202 25.796 35.4199H39.5689C39.6847 35.4202 39.7991 35.4451 39.9046 35.4929C40.01 35.5407 40.1041 35.6104 40.1807 35.6973C40.2572 35.7842 40.3144 35.8863 40.3485 35.997C40.3826 36.1077 40.3929 36.2243 40.3785 36.3392Z" fill="#27AE60"/>
<defs>
<linearGradient id="paint0_linear_2259_7466" x1="32.6822" y1="0.0507812" x2="32.6822" y2="65.2746" gradientUnits="userSpaceOnUse">
<stop stop-color="#27AE60"/>
<stop offset="1" stop-color="#27AE60" stop-opacity="0"/>
<stop offset="1" stop-color="#27AE60" stop-opacity="0"/>
</linearGradient>
</defs>
</svg>
