<svg width="67" height="66" viewBox="0 0 67 66" fill="none" xmlns="http://www.w3.org/2000/svg">
<circle opacity="0.16" cx="33.4869" cy="32.6627" r="32.6119" fill="url(#paint0_linear_2259_7468)"/>
<path d="M44.326 40.8491L36.8477 28.5803V21.3269C37.2267 21.198 37.5474 20.9385 37.7526 20.5948C37.9578 20.2511 38.0341 19.8457 37.9678 19.4509C37.9016 19.0561 37.6971 18.6978 37.391 18.4399C37.0848 18.1821 36.697 18.0415 36.2967 18.0433H30.674C30.2717 18.0359 29.88 18.1726 29.5697 18.4286C29.2593 18.6847 29.0507 19.0432 28.9815 19.4396C28.9122 19.8359 28.987 20.244 29.1922 20.59C29.3973 20.9361 29.7195 21.1975 30.1004 21.3269V28.5803L22.6334 40.8491C22.3799 41.2673 22.2423 41.7455 22.2347 42.2345C22.2271 42.7236 22.3498 43.2058 22.5903 43.6317C22.8307 44.0576 23.1802 44.4118 23.6028 44.658C24.0254 44.9041 24.5059 45.0334 24.995 45.0324H41.9757C42.4655 45.0326 42.9465 44.9022 43.3692 44.6546C43.7918 44.4071 44.1409 44.0513 44.3803 43.624C44.6197 43.1967 44.7409 42.7133 44.7314 42.2236C44.7218 41.7338 44.5819 41.2555 44.326 40.8378V40.8491ZM32.3495 28.7377V21.4169H34.5986V28.7265C34.5991 29.036 34.6846 29.3395 34.846 29.6036L35.9706 31.5378H30.9326L32.0572 29.6036C32.2324 29.3474 32.3336 29.0477 32.3495 28.7377Z" fill="#F2994A"/>
<defs>
<linearGradient id="paint0_linear_2259_7468" x1="33.4869" y1="0.0507812" x2="33.4869" y2="65.2746" gradientUnits="userSpaceOnUse">
<stop stop-color="#F2994A"/>
<stop offset="1" stop-color="#F2994A" stop-opacity="0"/>
</linearGradient>
</defs>
</svg>
